<svg xmlns="http://www.w3.org/2000/svg" xmlns:xlink="http://www.w3.org/1999/xlink" viewBox="0 0 220.1 223.07"><defs><style>.cls-1{isolation:isolate;}.cls-2{fill:#1a4ced;}.cls-13,.cls-14,.cls-15,.cls-17,.cls-19,.cls-27,.cls-28,.cls-29,.cls-3{fill:none;}.cls-13,.cls-15,.cls-29,.cls-3{stroke:#fff;}.cls-13,.cls-15,.cls-19,.cls-3{stroke-linecap:round;stroke-linejoin:round;}.cls-19,.cls-27,.cls-28,.cls-29,.cls-3{stroke-width:0.5px;}.cls-20,.cls-4,.cls-6,.cls-8,.cls-9{opacity:0.2;mix-blend-mode:multiply;}.cls-4{fill:url(#linear-gradient);}.cls-5{fill:#35826f;}.cls-7{fill:#4ebfa5;}.cls-8{fill:url(#linear-gradient-2);}.cls-9{fill:url(#linear-gradient-3);}.cls-10{fill:#942754;}.cls-11{fill:#ffcf30;}.cls-12{fill:#ff1a79;}.cls-13,.cls-14{stroke-width:0.52px;}.cls-14{stroke:#942754;}.cls-14,.cls-17,.cls-27,.cls-28,.cls-29{stroke-miterlimit:10;}.cls-15{stroke-width:0.75px;}.cls-16{fill:#fff;}.cls-17{stroke:#b5b5b5;stroke-width:0.77px;}.cls-18{fill:#547cde;}.cls-19,.cls-28{stroke:#ffcf30;}.cls-21{fill:#b514ff;}.cls-22{fill:#8ab1ff;}.cls-23{fill:#7c2aff;}.cls-24{fill:#5283ff;}.cls-25{fill:#0c11ff;}.cls-26{fill:#252933;}.cls-27{stroke:#103094;}.cls-29{opacity:0.15;}.cls-30{fill:url(#linear-gradient-4);}.cls-31{fill:url(#linear-gradient-5);}.cls-32{fill:url(#linear-gradient-6);}.cls-33{fill:url(#linear-gradient-7);}</style><linearGradient id="linear-gradient" x1="120.46" y1="194.48" x2="243.25" y2="194.48" gradientUnits="userSpaceOnUse"><stop offset="0" stop-color="#fff"/><stop offset="1"/></linearGradient><linearGradient id="linear-gradient-2" x1="80.21" y1="197.5" x2="80.21" y2="162.93" xlink:href="#linear-gradient"/><linearGradient id="linear-gradient-3" x1="155.66" y1="188.17" x2="155.66" y2="166.31" xlink:href="#linear-gradient"/><linearGradient id="linear-gradient-4" x1="133.46" y1="190.67" x2="133.46" y2="168.33" xlink:href="#linear-gradient"/><linearGradient id="linear-gradient-5" x1="111.52" y1="190.67" x2="111.52" y2="168.33" xlink:href="#linear-gradient"/><linearGradient id="linear-gradient-6" x1="85.43" y1="190.67" x2="85.43" y2="168.33" xlink:href="#linear-gradient"/><linearGradient id="linear-gradient-7" x1="63.49" y1="190.67" x2="63.49" y2="168.33" xlink:href="#linear-gradient"/></defs><title>Asset 1</title><g class="cls-1"><g id="Layer_2" data-name="Layer 2"><g id="OBJECTS"><path class="cls-2" d="M2.8,95.38c5.63-3.68,11.45,3.09,14.26,9.54s5.32,13.44,12.08,15.42,10.46,3.12,12.54,8.92,1.93,7.55,6.41,10.79,9.13,9,9.79,15.43L34.5,166.14s-6-2.45-11.89-9.79S18.13,144,16,140.83s-9.58-4.55-11-10.51,1-10.23-2.09-16.73S-1.66,98.29,2.8,95.38Z"/><path class="cls-3" d="M6.16,99c7.43,19.84,11.71,30.56,40.41,61.61"/><path class="cls-3" d="M12.89,101.18a41.37,41.37,0,0,1-.54,13.2"/><path class="cls-3" d="M5.91,118s1.22,2.27,12.43,7.57"/><path class="cls-3" d="M31.42,122.88s3.84,14.37.72,21.41"/><path class="cls-3" d="M21,151a35.25,35.25,0,0,0,18.1,1.39"/><path class="cls-2" d="M214.73,125.5c4.88,1.93,2.54,10.84.48,15.84s3.44,12.1-10.69,20.39l-17.45-10.57s4.22-12.24,11.06-14.7C205.18,133.93,207.87,122.78,214.73,125.5Z"/><path class="cls-3" d="M213.69,127.74s-6.5,15.89-17.88,28.72"/><path class="cls-3" d="M208.91,127.51s-1.57,5.64-.35,10.44"/><path class="cls-3" d="M213.43,146.81s-8.09,3.05-12.59,3.35"/><path class="cls-4" d="M93,165.9H215.75s-5.4,12.17-17.09,12.79c0,0,1.07,12.58-9.43,16.21-10.86,3.76-14.62,3.67-23.6,13.37s-16.7,15.55-31.74,14.72S102.15,210.33,93,165.9Z"/><path class="cls-5" d="M93,165.9H215.75s-5.4-12.17-17.09-12.8c0,0,1.07-12.57-9.43-16.21-10.86-3.76-14.62-3.66-23.6-13.37s-16.7-15.55-31.74-14.71S102.15,121.47,93,165.9Z"/><polygon class="cls-6" points="161.4 17.91 161.4 42.48 152.47 48.12 161.4 47.73 161.4 52.43 198.14 52.43 198.14 17.91 161.4 17.91"/><path class="cls-7" d="M8.6,169.56H151.81s-.79-15.23-17.92-21.71-17.54-6-23.18-13.57S98.25,122.8,90.38,123.63s-12,3.76-12,3.76-11.77-4-19.91.84-16.08,19.62-16.08,19.62S9.64,152.22,8.6,169.56Z"/><path class="cls-8" d="M8.6,169.56H151.81s-.79,15.24-17.92,21.71-17.54,6-23.18,13.57-12.46,11.49-20.33,10.65-12-3.76-12-3.76-11.77,4-19.91-.83-16.08-19.63-16.08-19.63S9.64,186.9,8.6,169.56Z"/><path class="cls-9" d="M171.07,174.06a23.09,23.09,0,0,1-13.13,5.53v41.47h-4.56V179.59a23.12,23.12,0,0,1-13.13-5.53,1,1,0,0,1,.62-1.69h29.58A1,1,0,0,1,171.07,174.06Z"/><rect class="cls-2" x="153.38" y="124.54" width="4.56" height="43.57"/><polygon class="cls-6" points="157.94 143.57 157.94 124.54 153.38 124.54 153.38 138.24 157.94 143.57"/><path class="cls-2" d="M169.72,125.91H141.6a2.17,2.17,0,0,1-1.92-2l-.61-3.75c-.26-1.6.68-3.1,1.92-3.1h29.34c1.25,0,2.18,1.5,1.92,3.1l-.61,3.75A2.17,2.17,0,0,1,169.72,125.91Z"/><path class="cls-2" d="M155.66,165.9a23.32,23.32,0,0,0-15.41,5.64,1,1,0,0,0,.62,1.69h29.58a1,1,0,0,0,.62-1.69A23.3,23.3,0,0,0,155.66,165.9Z"/><path class="cls-2" d="M171.07,171.54A23.1,23.1,0,0,0,157.94,166V124.54h-4.56V166a23.13,23.13,0,0,0-13.13,5.54,1,1,0,0,0,.62,1.69h29.58A1,1,0,0,0,171.07,171.54Z"/><rect class="cls-10" x="37.85" y="110.06" width="5.17" height="2.64" rx="0.66"/><path class="cls-11" d="M48.57,91.23a8.14,8.14,0,0,0-16.27,0,12.08,12.08,0,0,0,1.32,5.17,15.08,15.08,0,0,1,1.64,6.12l.11,1.67H45.5l.11-1.67a15.07,15.07,0,0,1,1.63-6.12A12,12,0,0,0,48.57,91.23Z"/><path class="cls-12" d="M35.05,104.19H45.82a0,0,0,0,1,0,0V110a1.23,1.23,0,0,1-1.23,1.23H36.28A1.23,1.23,0,0,1,35.05,110v-5.79A0,0,0,0,1,35.05,104.19Z"/><path class="cls-13" d="M42.39,97.76V93.23h0c0-1.64-.29-2.31-.63-2.31-.17,0-.33.17-.44.57-.11-.4-.27-.57-.44-.57s-.33.17-.45.57c-.11-.4-.27-.57-.44-.57s-.33.17-.44.57c-.12-.4-.27-.57-.45-.57s-.6.67-.62,2.31h0v4.53"/><line class="cls-14" x1="35.05" y1="105.77" x2="45.82" y2="105.77"/><line class="cls-14" x1="35.05" y1="107.05" x2="45.82" y2="107.05"/><line class="cls-14" x1="35.05" y1="108.34" x2="45.82" y2="108.34"/><line class="cls-14" x1="35.05" y1="109.62" x2="45.82" y2="109.62"/><line class="cls-15" x1="40.66" y1="76.31" x2="40.66" y2="79.86"/><line class="cls-15" x1="32.82" y1="78.41" x2="34.59" y2="81.48"/><line class="cls-15" x1="27.08" y1="84.15" x2="30.16" y2="85.92"/><line class="cls-15" x1="50.77" y1="97.82" x2="53.85" y2="99.6"/><line class="cls-15" x1="24.98" y1="91.98" x2="28.53" y2="91.98"/><line class="cls-15" x1="52.34" y1="91.98" x2="55.89" y2="91.98"/><line class="cls-15" x1="27.08" y1="99.82" x2="30.16" y2="98.05"/><line class="cls-15" x1="50.77" y1="86.14" x2="53.85" y2="84.37"/><line class="cls-15" x1="46.5" y1="81.87" x2="48.27" y2="78.79"/><polygon class="cls-16" points="44.12 68.29 48.33 59.02 38.19 59.91 40.05 62.55 31.13 68.1 34.05 72.22 42.25 65.66 44.12 68.29"/><polygon class="cls-16" points="207.12 48.88 202.9 39.61 213.05 40.5 211.18 43.13 220.1 48.69 217.18 52.8 208.98 46.24 207.12 48.88"/><path class="cls-16" d="M19.53,43.93H71.94S72.22,30.5,59.41,32c0,0-3.13-7.8-13.36-6s-10.3,9.68-10.3,9.68-7.45-2.23-9.54,4.87C26.21,40.59,20.43,40.94,19.53,43.93Z"/><path class="cls-16" d="M82.58,15.26l-1,.82-1,.82A33.79,33.79,0,0,1,83.66,26c1.87-.46,4.39,2.48,4.39,2.48l4.18-3.36S89.91,22,90.76,20.28A33.52,33.52,0,0,1,82.58,15.26Z"/><line class="cls-17" x1="81.56" y1="16.08" x2="86.74" y2="22.55"/><path class="cls-17" d="M88,22.55a1,1,0,0,1-.14,1.34,1,1,0,1,1-1.19-1.49A.94.94,0,0,1,88,22.55Z"/><rect class="cls-18" x="88.54" y="26.19" width="6.55" height="5.37" transform="translate(2.11 63.77) rotate(-38.71)"/><path class="cls-2" d="M90.94,33l17.61,22c.29.37,1.67-.26,3.08-1.39s2.32-2.34,2-2.7l-17.61-22Z"/><path class="cls-19" d="M89.1,37.6c-4.39,9.81-15,19-24.22,18.48-7.9-.45-7.76-4.63-6.69-6.16,1.31-1.85,5.85-1.65,6,2.88s-2.58,9.44-6.82,13.72a36.63,36.63,0,0,0-6.56,9.29"/><path class="cls-19" d="M98.08,25.77c2.92-5.5,8.87-10.41,15-12.71s11.59-4.28,12.74-7.93-2.4-6.06-6.26-4.28-3.24,9.19,5.84,8.56,25.9-2.92,30.18,5"/><polygon class="cls-11" points="160.19 16.08 160.19 40.65 151.26 46.28 160.19 45.9 160.19 50.6 196.93 50.6 196.93 16.08 160.19 16.08"/><circle class="cls-16" cx="174.89" cy="28.83" r="8.32"/><rect class="cls-16" x="174.89" y="28.83" width="14.13" height="14.13"/><path class="cls-12" d="M174.89,37.15a8.33,8.33,0,0,0,8.32-8.32h-8.32Z"/><g class="cls-20"><rect x="184.19" y="58.64" width="28.23" height="62.82" rx="4.83"/></g><rect class="cls-16" x="182.66" y="56.95" width="28.23" height="62.82" rx="4.83"/><path class="cls-11" d="M194.63,66a3.26,3.26,0,1,1-3.26-3.26A3.26,3.26,0,0,1,194.63,66Z"/><circle class="cls-12" cx="202.17" cy="65.96" r="3.26"/><path class="cls-5" d="M194.63,76a3.26,3.26,0,1,1-3.26-3.26A3.26,3.26,0,0,1,194.63,76Z"/><path class="cls-21" d="M205.43,76a3.26,3.26,0,1,1-3.26-3.26A3.26,3.26,0,0,1,205.43,76Z"/><path class="cls-22" d="M194.63,86.08a3.26,3.26,0,1,1-3.26-3.26A3.26,3.26,0,0,1,194.63,86.08Z"/><path class="cls-23" d="M205.43,86.08a3.26,3.26,0,1,1-3.26-3.26A3.26,3.26,0,0,1,205.43,86.08Z"/><path class="cls-24" d="M194.63,96.14a3.26,3.26,0,1,1-3.26-3.26A3.26,3.26,0,0,1,194.63,96.14Z"/><circle class="cls-25" cx="202.17" cy="96.14" r="3.26"/><path class="cls-22" d="M201.18,106.88l-2.42-2.42L192,111.24a2.06,2.06,0,0,0-.57,1.84h0a.65.65,0,0,1-.17.56l-.62.61a.54.54,0,0,0,0,.76h0a.56.56,0,0,0,.76,0l.61-.62a.65.65,0,0,1,.56-.17h0a2.06,2.06,0,0,0,1.84-.57Z"/><path class="cls-12" d="M202.16,106.55l-.44-.44.89-.89a1.55,1.55,0,0,0-2.2-2.19l-.88.89-.44-.44a.46.46,0,0,0-.65,0,.45.45,0,0,0,0,.66l3.06,3.06a.47.47,0,0,0,.66,0A.46.46,0,0,0,202.16,106.55Z"/><path class="cls-2" d="M117.93,162l-.56,6.83s-8.35,3.34-8.35,4.45,14.75,1.46,15.31,0S125.58,162,125.58,162Z"/><path class="cls-2" d="M100.83,162l-2.09,6.83s-8.36,3.34-8.36,4.45,14.76,1.46,15.32,0S108.49,162,108.49,162Z"/><path class="cls-11" d="M148.09,100s-32.78,1.74-37.1,11.34-11.28,52-11.28,52h9.23l12.32-45.21s32.57-1,39.78-4.28,10-13.88,10-13.88Z"/><path class="cls-6" d="M113,148.61l8.29-30.41s32.57-1,39.78-4.28,10-13.88,10-13.88h-23s-32.78,1.74-37.1,11.34a39.37,39.37,0,0,0-1.57,4.45Z"/><path class="cls-11" d="M171.06,100a20.36,20.36,0,0,1,0,11.58c-1.88,6.27-8.77,7.73-14.72,7.73H136.49a3.15,3.15,0,0,0-3.1,2.63l-6.81,41.43H115.93s1.15-37.77,3.55-46c3.62-12.46,13-13,35.61-15Z"/><path class="cls-2" d="M132.8,58.17c-4.28,3.65-6.47,29.23-6.47,29.23l-18.17,4.18V97l19.4-1.07a6.76,6.76,0,0,0,6.27-5.47l3.57-18.41Z"/><path class="cls-16" d="M131.49,94.5s-4.52.81-6.42,1.31c-1.66.43-9.27,4.49-9.27,5.35s5.22.57,5.22.57,5.3-1.28,6.08-2.9l5.36-.33Z"/><path class="cls-6" d="M134.23,88.44l3.17-16.38-4.6-13.89c-1.87,1.6-3.34,7.38-4.4,13.39Z"/><path class="cls-2" d="M142.45,53.16c6.12-.88,14.52-.42,18.59,4.8s9.39,27.77,10,33.51,3.34,9.3-2.09,9.3h-21.4c-5,0-5.22-.63-5.12-6.16s-.73-11.18-6.26-20.36-5.64-13.37-3.76-16.08S139.5,53.58,142.45,53.16Z"/><path class="cls-6" d="M142.45,94.61c-.1,5.53.11,6.16,5.12,6.16H169c5.43,0,2.72-3.55,2.09-9.3S165.11,63.18,161,58a8.54,8.54,0,0,0-.74-.84l-18.22,31.7A31.3,31.3,0,0,1,142.45,94.61Z"/><path class="cls-2" d="M157.61,55.58c6.17.52,5.72,16.27,5.72,21.69s.11,16-5.22,17.65-26.83,4.7-26.83,4.7l-.79-5.33,21.77-7.2s.42-13.47.53-18.06S151.68,55.08,157.61,55.58Z"/><path class="cls-2" d="M132.64,42.57c.82,1.85.41,3.82-.91,4.41s-3.07-.44-3.88-2.29-.41-3.82.91-4.4S131.83,40.72,132.64,42.57Z"/><path class="cls-16" d="M129.46,42.09a66.8,66.8,0,0,0,2.53,8c.63,1.56,2.71,2,5.47,1.22,0,0,1.08,3.17,1.81,4.83s8.51.61,7.57-2.31-2.16-6.29-2.16-6.29,3.25-14.59-7-15.54S126.59,40.4,129.46,42.09Z"/><path class="cls-26" d="M134,35.4s2.42,3.5,6.44,3.56c0,0,.82,6.08,4.2,8.6,0,0,5.22-2.52,3.38-5.59,0,0,4.52-2.64-.9-7.86,0,0,3.35-1.24,3.23-2.65s-6.34-.47-6.34-.47-7.1-9.47-11.73-8.6c-2.61.49-3.06,4.6-3.06,4.6s-5.47-2.15-7.64.86,2.8,8.6,2.8,8.6-2.14.67-2.1,2.33c.09,3.3,7.14,3.31,7.14,3.31l-.2-2.08s2,.49,1.85-.19a5,5,0,0,0-1.21-1.59S133.21,37.37,134,35.4Z"/><ellipse class="cls-2" cx="143.16" cy="41.72" rx="3.66" ry="2.62" transform="translate(73.92 173.79) rotate(-78.58)"/><path class="cls-2" d="M144,41.51a.82.82,0,0,1-.22,0,.84.84,0,0,1-.59-1c1.18-4.44.27-10.61.26-10.67a.83.83,0,0,1,1.65-.25c0,.26,1,6.57-.3,11.35A.82.82,0,0,1,144,41.51Z"/><polyline class="cls-27" points="152.75 64.25 152.26 87.09 130.49 94.29"/><path class="cls-26" d="M116.92,103.13H73.51L66.13,70.82A1.45,1.45,0,0,1,67.55,69h39.83a2.19,2.19,0,0,1,2.14,1.7Z"/><rect class="cls-26" x="90.96" y="101.28" width="48.79" height="1.84"/><polygon class="cls-16" points="74.64 107.14 63.1 181.19 60.18 181.19 68.24 107.14 74.64 107.14"/><polygon class="cls-16" points="88.7 173.75 84.82 107.14 78.42 107.14 85.43 173.75 88.7 173.75"/><polygon class="cls-16" points="122.67 107.14 111.14 181.19 108.21 181.19 116.27 107.14 122.67 107.14"/><polygon class="cls-16" points="136.73 173.75 132.85 107.14 126.45 107.14 133.46 173.75 136.73 173.75"/><g class="cls-20"><polygon points="73.89 111.97 74.64 107.14 68.24 107.14 67.84 110.82 73.89 111.97"/><polygon points="84.82 107.14 78.42 107.14 79.03 112.95 85.23 114.13 84.82 107.14"/></g><g class="cls-20"><polygon points="121.93 111.97 122.68 107.14 116.28 107.14 115.88 110.82 121.93 111.97"/><polygon points="132.86 107.14 126.45 107.14 127.07 112.95 133.27 114.13 132.86 107.14"/></g><rect class="cls-16" x="57.28" y="103.13" width="82.35" height="4.01"/><line class="cls-28" x1="57.28" y1="105.75" x2="139.76" y2="105.75"/><line class="cls-29" x1="107.21" y1="71.13" x2="114.71" y2="103.13"/><path class="cls-12" d="M95.26,85.93a5,5,0,1,1-5-5A5,5,0,0,1,95.26,85.93Z"/><g class="cls-20"><polygon class="cls-30" points="134.92 204.88 136.73 173.76 133.46 173.76 130.18 204.88 134.92 204.88"/><polygon class="cls-31" points="114.83 204.88 111.14 181.19 108.21 181.19 110.79 204.88 114.83 204.88"/><polygon class="cls-32" points="86.89 204.88 88.7 173.76 85.43 173.76 82.15 204.88 86.89 204.88"/><polygon class="cls-33" points="66.79 204.88 63.1 181.19 60.18 181.19 62.76 204.88 66.79 204.88"/></g><path class="cls-15" d="M108.52,26.05a2.91,2.91,0,1,1-2.9-2.91A2.9,2.9,0,0,1,108.52,26.05Z"/><path class="cls-15" d="M30,54.45a2.91,2.91,0,1,1-2.91-2.9A2.91,2.91,0,0,1,30,54.45Z"/><path class="cls-15" d="M94.41,57.36a2.91,2.91,0,1,1-2.91-2.91A2.9,2.9,0,0,1,94.41,57.36Z"/></g></g></g></svg>